<?xml version="1.0" standalone="no"?><!DOCTYPE svg PUBLIC "-//W3C//DTD SVG 1.1//EN" "http://www.w3.org/Graphics/SVG/1.1/DTD/svg11.dtd"><svg t="1480647579089" class="icon" style="" viewBox="0 0 1024 1024" version="1.1" xmlns="http://www.w3.org/2000/svg" p-id="13425" xmlns:xlink="http://www.w3.org/1999/xlink" width="200" height="200"><defs><style type="text/css"></style></defs><path d="M334.498216 504.593214V326.822148h-74.070936v251.842002h385.168253v-74.070936z" fill="#F7D54A" p-id="13426"></path><path d="M349.311789 208.309469h414.797447V489.778617H349.311789z" fill="#86AEDD" p-id="13427"></path><path d="M512.268258 704.584639m-37.03598 0a37.03598 37.03598 0 1 0 74.07196 0 37.03598 37.03598 0 1 0-74.07196 0Z" fill="#EE6A56" p-id="13428"></path><path d="M156.728174 156.459916v459.23919h14.813573V171.273489h681.451998v444.425617h14.814596V156.459916z" fill="#313E4B" p-id="13429"></path><path d="M512.268258 141.64532m-7.406786 0a7.406786 7.406786 0 1 0 14.813572 0 7.406786 7.406786 0 1 0-14.813572 0Z" fill="#313E4B" p-id="13430"></path><path d="M867.808341 97.202553H156.728174c-32.726447 0-59.256339 26.529893-59.256339 59.257363v577.752892c0 32.726447 26.529893 59.257363 59.256339 59.257363H416.642488c-18.016286 53.929064-51.083687 103.699106-111.773465 103.699106-8.180844 0-14.814597 6.631705-14.814597 14.814597 0 8.180844 6.632729 14.814597 14.814597 14.814597h414.797446c8.181868 0 14.813573-6.632729 14.813573-14.814597s-6.631705-14.813573-14.813573-14.814597c-60.689779 0-93.757179-49.770042-111.773465-103.699106H867.807318c32.726447 0 59.256339-26.529893 59.256339-59.257363V156.459916c0.001024-32.726447-26.528869-59.257363-59.255316-59.257363zM636.959061 897.169277H387.577455c26.454125-22.275649 47.08951-56.892188 61.094214-103.106276l0.177132-0.593854h126.839938c0.059385 0.19761 0.116723 0.396244 0.177132 0.593854 14.00368 46.213064 34.639064 80.829603 61.09319 103.106276z m260.47745-162.955445c0 16.362711-13.265458 29.62817-29.62817 29.62817H156.728174c-16.362711 0-29.62817-13.265458-29.628169-29.62817v-88.885533h770.336506v88.885533z m-770.336506-118.514726V156.46094c0-16.363735 13.265458-29.629194 29.628169-29.629193h711.080167c16.363735 0 29.62817 13.265458 29.62817 29.629193v459.23919H127.100005z" fill="" p-id="13431"></path></svg>