<?xml version="1.0" standalone="no"?><!DOCTYPE svg PUBLIC "-//W3C//DTD SVG 1.1//EN" "http://www.w3.org/Graphics/SVG/1.1/DTD/svg11.dtd"><svg t="1480929473499" class="icon" style="" viewBox="0 0 1024 1024" version="1.1" xmlns="http://www.w3.org/2000/svg" p-id="12661" xmlns:xlink="http://www.w3.org/1999/xlink" width="200" height="200"><defs><style type="text/css"></style></defs><path d="M626.987441 516.063801c21.568144-39.450302 33.85784-84.698866 33.85784-132.830691 0-153.172221-124.170669-277.34289-277.343913-277.34289S106.157454 230.060889 106.157454 383.23311c0 153.173245 124.170669 277.343913 277.343914 277.343913 73.631689 0 140.375702-28.891996 190.032092-75.706081l140.939863 140.939863a19.744605 19.744605 0 0 1 5.802358 14.007775v79.240533h79.241557c10.940215 0 19.810133 8.869919 19.810133 19.810134v79.241557h99.051691V807.454397L626.987441 516.063801z m-283.10634-53.589134c-65.645384 0-118.861823-53.21644-118.861823-118.861824s53.21644-118.861823 118.861823-118.861823 118.861823 53.21644 118.861824 118.861823-53.21644 118.861823-118.861824 118.861824z" fill="#FFFFFF" p-id="12662"></path><path d="M343.881101 185.130753c-87.526837 0-158.48209 70.954229-158.48209 158.48209s70.955253 158.48209 158.48209 158.48209 158.48209-70.954229 158.48209-158.48209-70.955253-158.48209-158.48209-158.48209z m0 277.343914c-65.645384 0-118.861823-53.21644-118.861823-118.861824s53.21644-118.861823 118.861823-118.861823 118.861823 53.21644 118.861824 118.861823-53.21644 118.861823-118.861824 118.861824z m475.44627 396.204713v59.431424h39.620267v-59.431424h-39.620267z m-99.05169-39.620267h39.621291v-59.430399H720.275681v59.430399z" fill="#F7D54A" p-id="12663"></path><path d="M343.881101 224.75102c-65.645384 0-118.861823 53.21644-118.861823 118.861823s53.21644 118.861823 118.861823 118.861824 118.861823-53.21644 118.861824-118.861824-53.21644-118.861823-118.861824-118.861823z m0 198.10338c-43.76393 0-79.240533-35.477627-79.240533-79.241557s35.477627-79.240533 79.240533-79.240533 79.240533 35.476603 79.240533 79.240533c0 43.76393-35.477627 79.241557-79.240533 79.241557zM952.19697 785.241205L674.952373 507.996608c16.41493-38.291263 25.513175-80.463052 25.513175-124.763498 0-175.053674-141.909482-316.96418-316.96418-316.96418s-316.96418 141.910506-316.96418 316.96418c0 175.054698 141.909482 316.96418 316.96418 316.96418 70.272321 0 135.190747-22.881789 187.742685-61.584655l109.411362 109.411362v90.846274c0 10.941239 8.869919 19.810133 19.810133 19.810133h79.241557v79.241557c0 10.940215 8.868895 19.810133 19.810133 19.810133H938.189195c10.940215 0 19.810133-8.869919 19.810133-19.810133V799.24898c0-5.470619-2.217736-10.423153-5.802358-14.007775z m-33.817908 132.869599h-99.051691v-79.241557c0-10.940215-8.869919-19.810133-19.810133-19.810134H720.275681v-79.240533a19.745628 19.745628 0 0 0-5.806454-14.01187L573.714688 585.05217c-49.65639 46.819204-116.579583 75.524853-190.21332 75.524853-153.173245 0-277.343913-124.170669-277.343914-277.343913 0-153.172221 124.170669-277.34289 277.343914-277.34289S660.845281 230.060889 660.845281 383.23311c0 48.132849-12.268194 93.397795-33.838386 132.850145l291.372167 291.371142V918.110804z" fill="" p-id="12664"></path></svg>