<?xml version="1.0" standalone="no"?><!DOCTYPE svg PUBLIC "-//W3C//DTD SVG 1.1//EN" "http://www.w3.org/Graphics/SVG/1.1/DTD/svg11.dtd"><svg t="1480595847950" class="icon" style="" viewBox="0 0 1024 1024" version="1.1" xmlns="http://www.w3.org/2000/svg" p-id="4682" xmlns:xlink="http://www.w3.org/1999/xlink" width="200" height="200"><defs><style type="text/css"></style></defs><path d="M384 959.7v-85.3H85.4c-47.1 0-85.4-38.2-85.4-85.3V106.3c0-47.1 38.2-85.3 85.4-85.3h853.3c47.1 0 85.4 38.2 85.4 85.3V789c0 47.1-38.2 85.3-85.4 85.3H640v85.3h106.7c11.8 0 21.3 9.6 21.3 21.3 0 11.8-9.5 21.3-21.3 21.3H277.3c-11.8 0-21.3-9.6-21.3-21.3 0-11.8 9.5-21.3 21.3-21.3H384v0.1z" fill="#666666" p-id="4683"></path><path d="M85.4 63.7h853.3c23.6 0 42.7 19.1 42.7 42.7v597.3H42.7V106.3c0-23.5 19.1-42.6 42.7-42.6z" fill="#E8F3FF" p-id="4684"></path><path d="M128 149h768v469.3H128z" fill="#FFBDA7" p-id="4685"></path></svg>