<?xml version="1.0" standalone="no"?><!DOCTYPE svg PUBLIC "-//W3C//DTD SVG 1.1//EN" "http://www.w3.org/Graphics/SVG/1.1/DTD/svg11.dtd"><svg t="1480929185412" class="icon" style="" viewBox="0 0 1024 1024" version="1.1" xmlns="http://www.w3.org/2000/svg" p-id="3813" xmlns:xlink="http://www.w3.org/1999/xlink" width="200" height="200"><defs><style type="text/css"></style></defs><path d="M171.033298 85.391661c0-47.095401 38.19627-85.391661 85.29167-85.391661h511.950005c47.095401 0 85.291671 38.19627 85.291671 85.391661v853.216678c0 47.095401-38.19627 85.391661-85.291671 85.391661h-511.950005c-47.095401 0-85.291671-38.19627-85.29167-85.391661V85.391661z" fill="#666666" p-id="3814"></path><path d="M213.729128 85.391661c0-23.597696 19.098135-42.69583 42.695831-42.695831h511.950004c23.597696 0 42.69583 19.098135 42.695831 42.695831v853.216678c0 23.597696-19.098135 42.69583-42.695831 42.695831h-511.950004c-23.597696 0-42.69583-19.098135-42.695831-42.695831V85.391661z" fill="#FFFEF1" p-id="3815"></path><path d="M299.020799 170.683332h426.658334V767.925007H299.020799z" fill="#C2E19D" p-id="3816"></path><path d="M512.299971 853.216678c23.597696 0 42.69583 19.098135 42.69583 42.695831s-19.098135 42.69583-42.69583 42.69583-42.69583-19.098135-42.695831-42.69583c0.09999-23.597696 19.198125-42.69583 42.695831-42.695831z" fill="#C1E19D" p-id="3817"></path></svg>