<?xml version="1.0" standalone="no"?><!DOCTYPE svg PUBLIC "-//W3C//DTD SVG 1.1//EN" "http://www.w3.org/Graphics/SVG/1.1/DTD/svg11.dtd"><svg t="1480848865418" class="icon" style="" viewBox="0 0 1024 1024" version="1.1" xmlns="http://www.w3.org/2000/svg" p-id="14836" xmlns:xlink="http://www.w3.org/1999/xlink" width="200" height="200"><defs><style type="text/css"></style></defs><path d="M384 128v256H128V128h256m0-64H128a64 64 0 0 0-64 64v256a64 64 0 0 0 64 64h256a64 64 0 0 0 64-64V128a64 64 0 0 0-64-64zM384 640v256H128v-256h256m0-64H128a64 64 0 0 0-64 64v256a64 64 0 0 0 64 64h256a64 64 0 0 0 64-64v-256a64 64 0 0 0-64-64z" fill="" p-id="14837"></path><path d="M768 768m-192 0a192 192 0 1 0 384 0 192 192 0 1 0-384 0Z" fill="" p-id="14838"></path><path d="M768 640a128 128 0 1 1-128 128 128 128 0 0 1 128-128m0-64a192 192 0 1 0 192 192 192 192 0 0 0-192-192zM896 128v256h-256V128h256m0-64h-256a64 64 0 0 0-64 64v256a64 64 0 0 0 64 64h256a64 64 0 0 0 64-64V128a64 64 0 0 0-64-64z" fill="" p-id="14839"></path></svg>